<svg width="24" height="24" viewBox="0 0 24 24" fill="none" xmlns="http://www.w3.org/2000/svg">
<path d="M17 17V19.5H7V17H5.75V19.5C5.75 19.8315 5.8817 20.1495 6.11612 20.3839C6.35054 20.6183 6.66848 20.75 7 20.75H17C17.3315 20.75 17.6495 20.6183 17.8839 20.3839C18.1183 20.1495 18.25 19.8315 18.25 19.5V17H17Z" fill="#262626" fill-opacity="0.5"/>
<path d="M15.125 15.125L14.2413 14.2413L12.625 15.8575V10.75H11.375V15.8575L9.75875 14.2413L8.875 15.125L12 18.25L15.125 15.125ZM19.5 4.5V3.25H15.75V9.5H17V7H18.875V5.75H17V4.5H19.5ZM12.625 9.5H10.125V3.25H12.625C13.1221 3.2505 13.5988 3.4482 13.9503 3.79972C14.3018 4.15125 14.4995 4.62787 14.5 5.125V7.625C14.4995 8.12213 14.3018 8.59875 13.9503 8.95028C13.5988 9.3018 13.1221 9.4995 12.625 9.5ZM11.375 8.25H12.625C12.7908 8.25 12.9497 8.18415 13.0669 8.06694C13.1842 7.94973 13.25 7.79076 13.25 7.625V5.125C13.25 4.95924 13.1842 4.80027 13.0669 4.68306C12.9497 4.56585 12.7908 4.5 12.625 4.5H11.375V8.25ZM7.625 3.25H4.5V9.5H5.75V7.625H7.625C7.95637 7.6245 8.27402 7.49265 8.50834 7.25834C8.74265 7.02402 8.8745 6.70637 8.875 6.375V4.5C8.875 4.16848 8.7433 3.85054 8.50888 3.61612C8.27446 3.3817 7.95652 3.25 7.625 3.25ZM5.75 6.375V4.5H7.625L7.62563 6.375H5.75Z" fill="#262626" fill-opacity="0.5"/>
</svg>
